<svg
                          width="26"
                          height="26"
                          viewBox="0 0 26 26"
                          fill="none"
                          xmlns="http://www.w3.org/2000/svg"
                        >
                          <path
                            d="M18.4167 9.93417C18.2137 9.73239 17.9391 9.61914 17.6529 9.61914C17.3667 9.61914 17.0921 9.73239 16.8892 9.93417L13 13.7692L9.165 9.93417C8.96202 9.73239 8.68745 9.61914 8.40125 9.61914C8.11504 9.61914 7.84047 9.73239 7.6375 9.93417C7.53596 10.0349 7.45536 10.1547 7.40036 10.2867C7.34536 10.4187 7.31705 10.5603 7.31705 10.7033C7.31705 10.8463 7.34536 10.9879 7.40036 11.12C7.45536 11.252 7.53596 11.3718 7.6375 11.4725L12.2308 16.0658C12.3315 16.1674 12.4514 16.248 12.5834 16.303C12.7154 16.358 12.857 16.3863 13 16.3863C13.143 16.3863 13.2846 16.358 13.4166 16.303C13.5486 16.248 13.6685 16.1674 13.7692 16.0658L18.4167 11.4725C18.5182 11.3718 18.5988 11.252 18.6538 11.12C18.7088 10.9879 18.7371 10.8463 18.7371 10.7033C18.7371 10.5603 18.7088 10.4187 18.6538 10.2867C18.5988 10.1547 18.5182 10.0349 18.4167 9.93417Z"
                            fill="currentColor"
                          />
                        </svg>