<svg width="19" height="42" viewBox="0 0 19 42" fill="none" xmlns="http://www.w3.org/2000/svg">
<path d="M9.5 0C10.0545 0 10.6035 0.108636 11.1158 0.319706C11.628 0.530776 12.0935 0.840145 12.4856 1.23015C12.8776 1.62016 13.1886 2.08316 13.4008 2.59273C13.613 3.1023 13.7222 3.64845 13.7222 4.2C13.7222 5.31391 13.2774 6.38219 12.4856 7.16985C11.6937 7.9575 10.6198 8.4 9.5 8.4C8.3802 8.4 7.30626 7.9575 6.51444 7.16985C5.72262 6.38219 5.27778 5.31391 5.27778 4.2C5.27778 3.64845 5.38699 3.1023 5.59918 2.59273C5.81136 2.08316 6.12237 1.62016 6.51444 1.23015C6.90651 0.840145 7.37196 0.530776 7.88423 0.319706C8.39649 0.108636 8.94553 0 9.5 0ZM6.33333 42V29.4H0L5.46778 13.461C5.99555 11.739 7.6 10.5 9.5 10.5C11.4 10.5 13.0044 11.739 13.5322 13.461L19 29.4H12.6667V42H6.33333Z" fill="black"/>
</svg>
