<svg width="14" height="31" viewBox="0 0 14 31" fill="none" xmlns="http://www.w3.org/2000/svg">
<path d="M7 0C7.40856 0 7.81311 0.0801838 8.19057 0.235973C8.56803 0.391763 8.91099 0.620107 9.19989 0.907969C9.48878 1.19583 9.71794 1.53757 9.87429 1.91368C10.0306 2.28979 10.1111 2.6929 10.1111 3.1C10.1111 3.92217 9.78333 4.71067 9.19989 5.29203C8.61644 5.87339 7.82512 6.2 7 6.2C6.17488 6.2 5.38356 5.87339 4.80011 5.29203C4.21667 4.71067 3.88889 3.92217 3.88889 3.1C3.88889 2.6929 3.96936 2.28979 4.12571 1.91368C4.28206 1.53757 4.51122 1.19583 4.80011 0.907969C5.08901 0.620107 5.43197 0.391763 5.80943 0.235973C6.18689 0.0801838 6.59144 0 7 0ZM4.66667 31V21.7H0L4.02889 9.9355C4.41778 8.6645 5.6 7.75 7 7.75C8.4 7.75 9.58222 8.6645 9.97111 9.9355L14 21.7H9.33333V31H4.66667Z" fill="black"/>
</svg>