<svg width="30" height="31" viewBox="0 0 30 31" fill="none" xmlns="http://www.w3.org/2000/svg">
<path d="M23 0C23.4086 0 23.8131 0.0801838 24.1906 0.235973C24.568 0.391763 24.911 0.620107 25.1999 0.907969C25.4888 1.19583 25.7179 1.53757 25.8743 1.91368C26.0306 2.28979 26.1111 2.6929 26.1111 3.1C26.1111 3.92217 25.7833 4.71067 25.1999 5.29203C24.6164 5.87339 23.8251 6.2 23 6.2C22.1749 6.2 21.3836 5.87339 20.8001 5.29203C20.2167 4.71067 19.8889 3.92217 19.8889 3.1C19.8889 2.6929 19.9694 2.28979 20.1257 1.91368C20.2821 1.53757 20.5112 1.19583 20.8001 0.907969C21.089 0.620107 21.432 0.391763 21.8094 0.235973C22.1869 0.0801838 22.5914 0 23 0ZM20.6667 31V21.7H16L20.0289 9.9355C20.4178 8.6645 21.6 7.75 23 7.75C24.4 7.75 25.5822 8.6645 25.9711 9.9355L30 21.7H25.3333V31H20.6667Z" fill="black"/>
<path d="M5.5 0C5.91272 0 6.32141 0.0801838 6.70272 0.235973C7.08403 0.391763 7.43049 0.620107 7.72233 0.907969C8.01418 1.19583 8.24568 1.53757 8.40362 1.91368C8.56156 2.28979 8.64286 2.6929 8.64286 3.1C8.64286 3.92217 8.31174 4.71067 7.72233 5.29203C7.13294 5.87339 6.33354 6.2 5.5 6.2C4.66646 6.2 3.86706 5.87339 3.27766 5.29203C2.68826 4.71067 2.35714 3.92217 2.35714 3.1C2.35714 2.6929 2.43843 2.28979 2.59638 1.91368C2.75432 1.53757 2.98582 1.19583 3.27766 0.907969C3.5695 0.620107 3.91597 0.391763 4.29728 0.235973C4.67859 0.0801838 5.08727 0 5.5 0ZM3.14286 7.75H7.85714C8.69068 7.75 9.49008 8.0766 10.0795 8.65797C10.6689 9.23933 11 10.0278 11 10.85V19.375H8.64286V31H2.35714V19.375H0V10.85C0 10.0278 0.331121 9.23933 0.920521 8.65797C1.50992 8.0766 2.30932 7.75 3.14286 7.75Z" fill="black"/>
</svg>