<svg width="11" height="31" viewBox="0 0 11 31" fill="none" xmlns="http://www.w3.org/2000/svg">
<path d="M5.5 0C5.91272 0 6.32141 0.0801838 6.70272 0.235973C7.08403 0.391763 7.43049 0.620107 7.72233 0.907969C8.01418 1.19583 8.24568 1.53757 8.40362 1.91368C8.56156 2.28979 8.64286 2.6929 8.64286 3.1C8.64286 3.92217 8.31174 4.71067 7.72233 5.29203C7.13294 5.87339 6.33354 6.2 5.5 6.2C4.66646 6.2 3.86706 5.87339 3.27766 5.29203C2.68826 4.71067 2.35714 3.92217 2.35714 3.1C2.35714 2.6929 2.43843 2.28979 2.59638 1.91368C2.75432 1.53757 2.98582 1.19583 3.27766 0.907969C3.5695 0.620107 3.91597 0.391763 4.29728 0.235973C4.67859 0.0801838 5.08727 0 5.5 0ZM3.14286 7.75H7.85714C8.69068 7.75 9.49008 8.0766 10.0795 8.65797C10.6689 9.23933 11 10.0278 11 10.85V19.375H8.64286V31H2.35714V19.375H0V10.85C0 10.0278 0.331121 9.23933 0.920521 8.65797C1.50992 8.0766 2.30932 7.75 3.14286 7.75Z" fill="black"/>
</svg>
