<svg width="15" height="42" viewBox="0 0 15 42" fill="none" xmlns="http://www.w3.org/2000/svg">
<path d="M7.5 0C8.06281 0 8.6201 0.108636 9.14007 0.319706C9.66004 0.530776 10.1325 0.840145 10.5305 1.23015C10.9284 1.62016 11.2441 2.08316 11.4595 2.59273C11.6749 3.1023 11.7857 3.64845 11.7857 4.2C11.7857 5.31391 11.3342 6.38219 10.5305 7.16985C9.72673 7.9575 8.63664 8.4 7.5 8.4C6.36336 8.4 5.27327 7.9575 4.46954 7.16985C3.66581 6.38219 3.21428 5.31391 3.21428 4.2C3.21428 3.64845 3.32514 3.1023 3.54051 2.59273C3.75589 2.08316 4.07158 1.62016 4.46954 1.23015C4.86751 0.840145 5.33996 0.530776 5.85993 0.319706C6.37989 0.108636 6.93719 0 7.5 0ZM4.28571 10.5H10.7143C11.8509 10.5 12.941 10.9425 13.7447 11.7302C14.5485 12.5178 15 13.5861 15 14.7V26.25H11.7857V42H3.21428V26.25H-7.66345e-07V14.7C-7.66345e-07 13.5861 0.451528 12.5178 1.25526 11.7302C2.05898 10.9425 3.14907 10.5 4.28571 10.5Z" fill="black"/>
</svg>
