<svg width="38" height="38" viewBox="0 0 38 38" fill="none" xmlns="http://www.w3.org/2000/svg">
<path d="M26.9167 34.8333H11.0833C9.33443 34.8333 7.91667 33.4155 7.91667 31.6666V11.0833H4.75V7.91663H11.0833V6.33329C11.0833 4.58439 12.5011 3.16663 14.25 3.16663H23.75C25.4989 3.16663 26.9167 4.58439 26.9167 6.33329V7.91663H33.25V11.0833H30.0833V31.6666C30.0833 33.4155 28.6656 34.8333 26.9167 34.8333ZM11.0833 11.0833V31.6666H26.9167V11.0833H11.0833ZM14.25 6.33329V7.91663H23.75V6.33329H14.25ZM23.75 28.5H20.5833V14.25H23.75V28.5ZM17.4167 28.5H14.25V14.25H17.4167V28.5Z" fill="black"/>
</svg>
